# xmcd
#
# Track frame offsets: 
#        150
#        14370
#        33432
#        45510
#        66137
#        86615
#        99065
#        108777
#        120357
#        170320
#        180922
#        194032
#
# Disc length: 2748 seconds
#
# Revision: 0
# Processed by: cddbd v1.5.2PL0 Copyright (c) Steve Scherf et al.
# Submitted via: ExactAudioCopyFreeDBPlugin 1.0
#
DISCID=870aba0c
DTITLE=Creedence Clearwater Revival - Greatest Hits
DYEAR=1984
DGENRE=Country
TTITLE0=Proud Mary
TTITLE1=The Midnight Special
TTITLE2=Have You Ever Seen The Rain?
TTITLE3=Suzie Q
TTITLE4=I Put a Spell On You
TTITLE5=Down On The Corner
TTITLE6=Travellin' Band
TTITLE7=Green River
TTITLE8=I Heard Through The Grapevine
TTITLE9=Bad Moon Rising
TTITLE10=Sweet Hitch-Hiker
TTITLE11=Up Around The Bend
EXTD=
EXTT0=
EXTT1=
EXTT2=
EXTT3=
EXTT4=
EXTT5=
EXTT6=
EXTT7=
EXTT8=
EXTT9=
EXTT10=
EXTT11=
PLAYORDER=
